<?xml version="1.0" standalone="no"?>
<!DOCTYPE svg PUBLIC "-//W3C//DTD SVG 20010904//EN"
 "http://www.w3.org/TR/2001/REC-SVG-20010904/DTD/svg10.dtd">
<svg version="1.0" xmlns="http://www.w3.org/2000/svg"
 width="476.000000pt" height="476.000000pt" viewBox="0 0 476.000000 476.000000"
 preserveAspectRatio="xMidYMid meet">
<metadata>
Created by potrace 1.11, written by Peter Selinger 2001-2013
</metadata>
<g transform="translate(0.000000,476.000000) scale(0.100000,-0.100000)"
fill="#000000" stroke="none">
<path d="M2155 4730 c-1000 -106 -1814 -803 -2060 -1764 -56 -219 -69 -332
-69 -586 0 -254 13 -367 69 -586 236 -921 1003 -1610 1950 -1750 166 -25 504
-25 670 0 947 140 1714 828 1950 1750 56 219 69 332 69 586 0 254 -13 367 -69
586 -213 833 -866 1486 -1699 1699 -72 18 -180 41 -241 50 -127 19 -451 28
-570 15z"/>
</g>
</svg>
